{"title":"Tower.Heist.2011.Cam.x264.Feel-Free","uid":6815057,"size":1209835800,"categoryP":"video","categoryS":"movies","magnet":"?xt=urn:btih:ae489cfc0356fcbdca4a4f12f15973710982f354&amp;dn=Tower.Heist.2011.Cam.x264.Feel-Free&amp;tr=udp%3A%2F%2Ftracker.openbittorrent.com%3A80&amp;tr=udp%3A%2F%2Fopen.demonii.com%3A1337&amp;tr=udp%3A%2F%2Ftracker.coppersurfer.tk%3A6969&amp;tr=udp%3A%2F%2Fexodus.desync.com%3A6969","seeders":0,"leechers":1,"uploader":"HeroMaster","files":-1,"time":1321177992,"description":"Tower.Heist.2011.Cam.x264.Feel-Free\n\nGenre: Action | Comedy | Crime\nLanguage:English\nIMDb:http://www.imdb.com/title/tt0471042/\nSource:HP Thanks!\n\nFormat : MPEG-4\nFormat profile : Base Media\nCodec ID : isom\nFile size : 1.13 GiB\nDuration : 1h 33mn\nOverall bit rate : 1 726 Kbps\n\nVideo\nID : 1\nFormat : AVC\nFormat/Info : Advanced Video Codec\nFormat profile : &lt;a class=&quot;__cf_email__&quot; href=&quot;/cdn-cgi/l/email-protection&quot; data-cfemail=&quot;f4bc9d939cb4b8c1dac5&quot;&gt;[email&amp;#160;protected]&lt;/a&gt;&lt;script cf-hash='f9e31' type=&quot;text/javascript&quot;&gt;\n/* &lt;![CDATA[ */!function(){try{var t=&quot;currentScript&quot;in document?document.currentScript:function(){for(var t=document.getElementsByTagName(&quot;script&quot;),e=t.length;e--;)if(t[e].getAttribute(&quot;cf-hash&quot;))return t[e]}();if(t&amp;&amp;t.previousSibling){var e,r,n,i,c=t.previousSibling,a=c.getAttribute(&quot;data-cfemail&quot;);if(a){for(e=&quot;&quot;,r=parseInt(a.substr(0,2),16),n=2;a.length-n;n+=2)i=parseInt(a.substr(n,2),16)^r,e+=String.fromCharCode(i);e=document.createTextNode(e),c.parentNode.replaceChild(e,c)}}}catch(u){}}();/* ]]&gt; */&lt;/script&gt;\nFormat settings, CABAC : Yes\nFormat settings, ReFrames : 3 frames\nCodec ID : avc1\nCodec ID/Info : Advanced Video Coding\nDuration : 1h 33mn\nBit rate mode : Variable\nBit rate : 1 500 Kbps\nMaximum bit rate : 6 122 Kbps\nWidth : 720 pixels\nHeight : 304 pixels\nDisplay aspect ratio : 2.35:1\nFrame rate mode : Constant\nFrame rate : 29.970 fps\nColor space : YUV\nChroma subsampling : 4:2:0\nBit depth : 8 bits\nScan type : Progressive\nBits/(Pixel*Frame) : 0.229\nStream size : 1 000 MiB (87%)\nWriting library : x264\n\n\nAudio\nID : 2\nFormat : AAC\nFormat/Info : Advanced Audio Codec\nFormat version : Version 4\nFormat profile : LC\nFormat settings, SBR : No\nCodec ID : 40\nDuration : 1h 33mn\nBit rate mode : Variable\nBit rate : 224 Kbps\nMaximum bit rate : 266 Kbps\nChannel(s) : 2 channels\nChannel positions : Front: L R\nSampling rate : 48.0 KHz\nStream size : 150 MiB (13%)\n\n\nPlot:\nWhen a group of hard working guys find out they've fallen victim to a wealthy business man's Ponzi scheme, they conspire to rob his high-rise residence.\n\n\nPoster:\n\n &lt;a href=&quot;\nhttp://i.imgur.com/4jaPY.png&quot; rel=&quot;nofollow&quot; target=&quot;_NEW&quot;&gt;\nhttp://i.imgur.com/4jaPY.png&lt;/a&gt;\n\n\nScreens:\n\n &lt;a href=&quot;\nhttp://i.imgur.com/2eVee.png&quot; rel=&quot;nofollow&quot; target=&quot;_NEW&quot;&gt;\nhttp://i.imgur.com/2eVee.png&lt;/a&gt;\n &lt;a href=&quot;\nhttp://i.imgur.com/IAqpc.png&quot; rel=&quot;nofollow&quot; target=&quot;_NEW&quot;&gt;\nhttp://i.imgur.com/IAqpc.png&lt;/a&gt;\n &lt;a href=&quot;\nhttp://i.imgur.com/5NLyz.png&quot; rel=&quot;nofollow&quot; target=&quot;_NEW&quot;&gt;\nhttp://i.imgur.com/5NLyz.png&lt;/a&gt;\n\n\nENJOY!","torrent":{"xt":"urn:btih:ae489cfc0356fcbdca4a4f12f15973710982f354","amp;dn":"Tower.Heist.2011.Cam.x264.Feel-Free","amp;tr":["udp%3A%2F%2Ftracker.openbittorrent.com%3A80","udp%3A%2F%2Fopen.demonii.com%3A1337","udp%3A%2F%2Ftracker.coppersurfer.tk%3A6969","udp%3A%2F%2Fexodus.desync.com%3A6969"],"infoHash":"ae489cfc0356fcbdca4a4f12f15973710982f354","infoHashBuffer":{"type":"Buffer","data":[174,72,156,252,3,86,252,189,202,74,79,18,241,89,115,113,9,130,243,84]},"announce":[],"urlList":[]}}